<svg width="119" height="66" viewBox="0 0 119 66" fill="none" xmlns="http://www.w3.org/2000/svg">
<g clip-path="url(#clip0_19_4541)">
<path d="M45.5298 14.5005L31.704 42.2741H46.2057C46.6923 42.2741 47.1368 41.9956 47.3535 41.5544L59.0275 17.7994L45.529 14.5005H45.5298Z" fill="url(#paint0_linear_19_4541)"/>
<path d="M45.8313 0.141113C46.6982 1.85363 47.5533 3.54675 48.4033 5.23762C49.2562 3.53853 50.1091 1.8402 50.9627 0.141113H45.832H45.8313Z" fill="black"/>
<path d="M52.6723 0.141113L73.6494 42.2741H58.3537L45.5659 16.272C45.2776 15.6859 45.2791 14.9962 45.571 14.4116L52.6723 0.141113Z" fill="#E70023"/>
<path d="M67.9783 0H54.5034L61.208 13.4717H68.3756C72.6402 13.4717 76.0968 16.9722 76.0968 21.2908C76.0968 25.6094 72.9572 28.7657 68.9742 29.0763L75.4186 42.0247C83.5099 38.9684 89.2731 31.0755 89.2731 21.8164V21.564C89.2731 9.65477 79.7392 0 67.9783 0Z" fill="black"/>
<path d="M16.0397 53.2882H21.1778C21.1778 53.8182 21.1557 54.3005 21.1115 54.7327C21.0673 55.1657 20.9795 55.5681 20.8476 55.9391C20.6625 56.4609 20.4119 56.9223 20.0949 57.3239C19.7779 57.7263 19.4057 58.0615 18.9788 58.3309C18.5513 58.6004 18.0824 58.8057 17.5716 58.9476C17.0607 59.0887 16.5233 59.1596 15.9594 59.1596C15.1846 59.1596 14.4776 59.0319 13.8392 58.7751C13.2008 58.5191 12.6524 58.1585 12.1946 57.6949C11.7361 57.2313 11.38 56.6744 11.1242 56.0249C10.8684 55.3755 10.7416 54.6581 10.7416 53.8712C10.7416 53.0844 10.8669 52.3804 11.1183 51.7309C11.3697 51.0815 11.7265 50.5268 12.1887 50.0677C12.6509 49.6086 13.2075 49.251 13.8599 48.9942C14.5115 48.7381 15.2384 48.6097 16.0397 48.6097C17.0784 48.6097 17.9903 48.8352 18.7739 49.2861C19.5575 49.737 20.179 50.435 20.636 51.3801L18.179 52.4006C17.9497 51.8526 17.6526 51.4592 17.2877 51.2211C16.9221 50.9822 16.5056 50.8635 16.0397 50.8635C15.6519 50.8635 15.3003 50.9359 14.9826 51.0822C14.6656 51.2278 14.3951 51.4361 14.1702 51.7048C13.9454 51.9743 13.7692 52.299 13.6417 52.679C13.5141 53.059 13.45 53.483 13.45 53.9511C13.45 54.3751 13.5053 54.7678 13.6151 55.1306C13.725 55.4934 13.8901 55.8062 14.1105 56.072C14.3302 56.337 14.6037 56.543 14.9295 56.6886C15.2553 56.8349 15.6343 56.9073 16.0655 56.9073C16.3206 56.9073 16.5675 56.879 16.8049 56.8215C17.043 56.764 17.256 56.6714 17.4455 56.543C17.6342 56.4146 17.7912 56.2489 17.9143 56.0458C18.0375 55.8428 18.1215 55.5949 18.1657 55.3031H16.039V53.2882L16.0375 53.2897L16.0397 53.2882Z" fill="#181818"/>
<path d="M27.9547 51.0882H24.877V52.7582H27.7837V54.9589H24.877V56.6819H27.9547V58.8819H22.288V48.8882H27.9547V51.0882Z" fill="#181818"/>
<path d="M29.289 58.8811V48.8875H31.878L36.66 54.9977V48.8875H39.2357V58.8811H36.66L31.878 52.7709V58.8811H29.289Z" fill="#181818"/>
<path d="M48.0995 52.2274C47.5002 51.4943 46.7601 51.1277 45.8799 51.1277C45.4922 51.1277 45.1339 51.1987 44.8036 51.3398C44.4734 51.4808 44.1896 51.6735 43.9515 51.9168C43.7133 52.1602 43.5261 52.4491 43.3897 52.785C43.2533 53.121 43.1848 53.483 43.1848 53.872C43.1848 54.2609 43.2526 54.6364 43.3897 54.9716C43.5261 55.3075 43.7156 55.5987 43.9573 55.8465C44.1991 56.0936 44.4837 56.2885 44.8095 56.4295C45.1346 56.5706 45.4877 56.6416 45.8666 56.6416C46.6945 56.6416 47.4383 56.2885 48.0988 55.5815V58.6564L47.8342 58.7497C47.4383 58.8908 47.0682 58.9946 46.7247 59.061C46.3812 59.1275 46.0428 59.1603 45.7081 59.1603C45.0211 59.1603 44.3628 59.0297 43.7332 58.7691C43.1037 58.5086 42.5486 58.1421 42.0687 57.6695C41.5888 57.197 41.2033 56.6356 40.9128 55.9861C40.6224 55.3366 40.4764 54.6274 40.4764 53.8593C40.4764 53.0911 40.6194 52.3856 40.9054 51.7451C41.1915 51.1046 41.5748 50.5522 42.0547 50.0886C42.5346 49.625 43.0919 49.2622 43.7259 49.0017C44.3598 48.7419 45.0248 48.6105 45.7207 48.6105C46.1165 48.6105 46.5065 48.6523 46.8891 48.7359C47.2717 48.8203 47.6749 48.9509 48.0988 49.1271V52.2281H48.1003L48.0995 52.2274Z" fill="#181818"/>
<path d="M52.5971 54.084L48.9643 48.8882H52.056L53.9048 51.6182L55.7411 48.8882H58.8329L55.1868 54.084V58.8819H52.5978V54.084H52.5971Z" fill="#181818"/>
<path d="M62.5217 48.8882H66.3528C67.031 48.8882 67.6672 49.0256 68.2621 49.2988C68.8563 49.5728 69.376 49.9371 69.8205 50.3924C70.265 50.8478 70.6152 51.3779 70.871 51.9833C71.1268 52.5887 71.2536 53.2225 71.2536 53.8854C71.2536 54.5483 71.1282 55.1694 70.8776 55.7741C70.6262 56.3795 70.279 56.9118 69.8338 57.3709C69.3892 57.8308 68.8695 58.1973 68.2754 58.4706C67.6805 58.7445 67.0398 58.8811 66.3528 58.8811H62.5217V48.8875V48.8882ZM65.1114 56.6811H65.7063C66.1552 56.6811 66.5555 56.611 66.9079 56.4691C67.2603 56.328 67.5573 56.1332 67.7999 55.8861C68.0417 55.639 68.226 55.3449 68.3542 55.0045C68.4818 54.6648 68.5459 54.2908 68.5459 53.8839C68.5459 53.4771 68.4796 53.115 68.3483 52.7709C68.2156 52.4267 68.0284 52.1303 67.7866 51.8825C67.5448 51.6354 67.2463 51.4406 66.8946 51.2995C66.5423 51.1584 66.1464 51.0875 65.7063 51.0875H65.1114V56.6804V56.6811Z" fill="#181818"/>
<path d="M74.966 52.1215V58.8812H72.377V52.1215H74.966Z" fill="#181818"/>
<path d="M74.966 49.9087V50.0095C74.966 50.7269 74.3858 51.3084 73.6715 51.3084C72.9572 51.3084 72.377 50.7269 72.377 50.0095V49.9087C72.377 49.1913 72.9564 48.6097 73.6715 48.6097C74.3866 48.6097 74.966 49.1913 74.966 49.9087Z" fill="url(#paint1_linear_19_4541)"/>
<path d="M81.9928 51.4465C81.7104 51.2166 81.4288 51.0464 81.1479 50.9359C80.8656 50.8254 80.5929 50.7702 80.3282 50.7702C79.9935 50.7702 79.72 50.85 79.5092 51.009C79.2976 51.1681 79.1915 51.3756 79.1915 51.6316C79.1915 51.8086 79.2446 51.9541 79.35 52.0691C79.4554 52.1841 79.5947 52.2834 79.7665 52.367C79.9375 52.4506 80.1314 52.5237 80.3474 52.5857C80.5626 52.6477 80.7771 52.7141 80.988 52.785C81.8335 53.068 82.4528 53.4457 82.8442 53.9182C83.2364 54.3908 83.4325 55.0074 83.4325 55.7674C83.4325 56.2802 83.3462 56.7438 83.1744 57.1589C83.0027 57.5747 82.7513 57.9301 82.4211 58.2257C82.0901 58.522 81.6854 58.7512 81.2055 58.9147C80.7255 59.0782 80.1822 59.1603 79.5741 59.1603C78.315 59.1603 77.148 58.7848 76.074 58.0338L77.1834 55.9398C77.5704 56.284 77.953 56.5408 78.3319 56.7087C78.7108 56.8767 79.0853 56.9611 79.4554 56.9611C79.8778 56.9611 80.1926 56.864 80.3997 56.6692C80.6076 56.4751 80.7108 56.2541 80.7108 56.0063C80.7108 55.8562 80.685 55.7256 80.6312 55.6151C80.5781 55.5046 80.4897 55.4031 80.3673 55.3105C80.2442 55.2179 80.0835 55.1321 79.8859 55.0522C79.6876 54.9723 79.448 54.885 79.1664 54.7872C78.8317 54.6812 78.503 54.564 78.1823 54.4363C77.8609 54.3079 77.5741 54.1385 77.3235 53.9257C77.0721 53.713 76.8701 53.4464 76.7153 53.1239C76.562 52.8014 76.4838 52.3931 76.4838 51.8974C76.4838 51.4017 76.5649 50.9538 76.7286 50.5522C76.8915 50.1498 77.1207 49.8057 77.4156 49.5182C77.7105 49.2316 78.0717 49.0076 78.4985 48.8494C78.9254 48.6896 79.403 48.6105 79.9316 48.6105C80.4248 48.6105 80.9401 48.6792 81.4767 48.8158C82.0141 48.9531 82.5294 49.1539 83.0226 49.419L81.992 51.4473L81.9905 51.4488L81.9928 51.4465Z" fill="#181818"/>
<path d="M92.8123 58.8811H89.5894L87.1191 55.0373V58.8811H84.5294V48.8875H88.5588C89.1132 48.8875 89.5975 48.9696 90.0118 49.1323C90.4253 49.2958 90.7666 49.519 91.0364 49.8012C91.3048 50.0841 91.5068 50.4111 91.6446 50.7821C91.781 51.1531 91.8481 51.551 91.8481 51.9751C91.8481 52.735 91.666 53.3517 91.3004 53.8242C90.9362 54.2967 90.3958 54.6178 89.683 54.785L92.813 58.8804L92.8123 58.8811ZM87.1198 53.3546H87.6078C88.1187 53.3546 88.5109 53.2486 88.7836 53.0366C89.0564 52.8246 89.1928 52.52 89.1928 52.1221C89.1928 51.7242 89.0564 51.4197 88.7836 51.2076C88.5109 50.9956 88.1194 50.8896 87.6078 50.8896H87.1198V53.3546Z" fill="#181818"/>
<path d="M95.8642 48.8882V54.3221C95.8642 54.614 95.8753 54.9119 95.8967 55.2165C95.9188 55.5218 95.9837 55.7972 96.095 56.0451C96.2041 56.2922 96.378 56.4938 96.6162 56.6483C96.8543 56.8028 97.1882 56.8804 97.6195 56.8804C98.0507 56.8804 98.3839 56.8028 98.6169 56.6483C98.8505 56.4938 99.0245 56.2929 99.1388 56.0451C99.2538 55.798 99.3216 55.521 99.3437 55.2165C99.3658 54.9119 99.3762 54.6133 99.3762 54.3221V48.8882H101.953V54.6797C101.953 56.2355 101.598 57.3702 100.889 58.0861C100.18 58.802 99.0901 59.1596 97.6195 59.1596C96.1488 59.1596 95.0556 58.802 94.3434 58.0861C93.6299 57.3702 93.2738 56.2347 93.2738 54.6797V48.8882H95.8642Z" fill="#181818"/>
<path d="M106.101 58.8811H103.512V48.8875H107.633C108.751 48.8875 109.608 49.1793 110.202 49.7624C110.797 50.3454 111.094 51.1673 111.094 52.2274C111.094 53.2875 110.797 54.1094 110.202 54.6924C109.608 55.2754 108.751 55.5673 107.633 55.5673H106.101V58.8811ZM106.101 53.4741H106.96C107.911 53.4741 108.387 53.059 108.387 52.2281C108.387 51.3973 107.911 50.9822 106.96 50.9822H106.101V53.4741Z" fill="#181818"/>
<path d="M116.373 51.0882V58.8811H113.785V51.0882H111.658V48.8875H118.501V51.0882H116.374H116.373Z" fill="#181818"/>
<path d="M3.96179 51.9907L0.5 58.8811H4.13134C4.25297 58.8811 4.36428 58.8117 4.41884 58.7027L7.34248 52.8089L3.96179 51.9907Z" fill="url(#paint2_linear_19_4541)"/>
<path d="M5.75092 48.4283L11.0033 58.8811H7.17293L3.97063 52.4305C3.89839 52.2849 3.89839 52.1139 3.97211 51.9691L5.75018 48.4283H5.75092Z" fill="#E70023"/>
<path d="M35.6324 62.5884C35.3375 62.2279 34.9734 62.0472 34.5406 62.0472C34.3497 62.0472 34.1735 62.0823 34.0106 62.1517C33.8484 62.2211 33.7084 62.316 33.5912 62.4354C33.474 62.5556 33.3818 62.6974 33.3147 62.8624C33.2476 63.0274 33.2137 63.2058 33.2137 63.3969C33.2137 63.588 33.2476 63.7732 33.3147 63.9381C33.3818 64.1031 33.4747 64.2472 33.5941 64.3689C33.7128 64.4906 33.8529 64.5869 34.0136 64.6556C34.1735 64.7257 34.3468 64.7601 34.534 64.7601C34.9409 64.7601 35.308 64.5861 35.6324 64.2383V65.7522L35.5027 65.7977C35.308 65.8672 35.126 65.9179 34.9564 65.9508C34.7876 65.9836 34.621 66 34.4559 66C34.1175 66 33.7931 65.9358 33.4835 65.8074C33.1739 65.6798 32.9004 65.4984 32.6645 65.2662C32.4286 65.0333 32.2392 64.7578 32.0954 64.4376C31.9524 64.1173 31.8809 63.7687 31.8809 63.391C31.8809 63.0132 31.9509 62.6661 32.0917 62.3503C32.2325 62.0345 32.4213 61.7628 32.6572 61.5351C32.8931 61.3067 33.1673 61.1282 33.4798 61.0006C33.7917 60.8729 34.119 60.808 34.4618 60.808C34.6564 60.808 34.8488 60.8289 35.0368 60.8699C35.2255 60.911 35.4238 60.9752 35.6317 61.0625V62.5899L35.6324 62.5884Z" fill="#181818"/>
<path d="M37.7127 60.9446V63.6194C37.7127 63.7634 37.7179 63.9098 37.7289 64.0598C37.74 64.2099 37.7724 64.3457 37.8262 64.4674C37.8801 64.5891 37.9663 64.6884 38.0835 64.7645C38.2007 64.8407 38.3651 64.8788 38.5774 64.8788C38.7897 64.8788 38.9534 64.8407 39.0684 64.7645C39.1834 64.6884 39.2689 64.5891 39.3257 64.4674C39.3817 64.3457 39.4156 64.2099 39.4267 64.0598C39.4377 63.9098 39.4429 63.7627 39.4429 63.6194V60.9446H40.7108V63.7948C40.7108 64.56 40.5361 65.1191 40.1874 65.4715C39.838 65.8238 39.3021 66 38.5782 66C37.8543 66 37.3169 65.8238 36.966 65.4715C36.6151 65.1191 36.4396 64.5607 36.4396 63.7948V60.9446H37.7142H37.7127Z" fill="#181818"/>
<path d="M44.4284 62.2039C44.2898 62.0912 44.1512 62.0076 44.0126 61.9523C43.8741 61.8986 43.7391 61.8709 43.6094 61.8709C43.445 61.8709 43.3101 61.9098 43.2062 61.9882C43.1022 62.0665 43.0499 62.1688 43.0499 62.295C43.0499 62.3823 43.0757 62.454 43.1273 62.51C43.1796 62.5667 43.2475 62.6152 43.3322 62.6563C43.417 62.6973 43.5121 62.7339 43.6182 62.7638C43.7244 62.7944 43.8291 62.8265 43.9338 62.8616C44.3495 63.0004 44.654 63.1871 44.8471 63.4192C45.0395 63.6522 45.1368 63.9552 45.1368 64.3292C45.1368 64.5816 45.0948 64.81 45.01 65.0146C44.9253 65.2191 44.8014 65.3938 44.6392 65.5394C44.4771 65.6849 44.2773 65.7984 44.0414 65.879C43.8055 65.9596 43.5372 65.9992 43.2386 65.9992C42.6186 65.9992 42.0444 65.8141 41.5158 65.4445L42.0621 64.4136C42.253 64.5831 42.4417 64.7092 42.6275 64.7921C42.814 64.875 42.9983 64.916 43.1804 64.916C43.3882 64.916 43.5438 64.8682 43.6448 64.7719C43.7473 64.6764 43.7974 64.5674 43.7974 64.4457C43.7974 64.3718 43.7849 64.3076 43.7583 64.2531C43.7325 64.1994 43.689 64.1486 43.6286 64.103C43.5674 64.0575 43.4885 64.015 43.3912 63.9754C43.2939 63.9366 43.1752 63.8925 43.0366 63.8448C42.8722 63.7925 42.7108 63.735 42.5523 63.6723C42.3938 63.6096 42.253 63.526 42.1292 63.4207C42.0053 63.317 41.9058 63.1848 41.8299 63.0258C41.7539 62.8668 41.7163 62.666 41.7163 62.4226C41.7163 62.1793 41.7561 61.9583 41.8365 61.7605C41.9168 61.5626 42.0289 61.3932 42.1749 61.2521C42.3201 61.111 42.4977 61.0005 42.7078 60.9229C42.9179 60.8452 43.1531 60.8057 43.4133 60.8057C43.6558 60.8057 43.9102 60.8393 44.1741 60.9072C44.4387 60.9744 44.6923 61.0737 44.9341 61.2043L44.4269 62.2024V62.2039H44.4284Z" fill="#181818"/>
<path d="M47.829 62.0278V65.8634H46.5544V62.0278H45.5076V60.9446H48.8751V62.0278H47.8283H47.829Z" fill="#181818"/>
<path d="M49.1751 63.4036C49.1751 63.0378 49.2422 62.6982 49.3763 62.3831C49.5105 62.0674 49.697 61.7934 49.9351 61.5582C50.1732 61.3231 50.4585 61.1402 50.7902 61.0073C51.122 60.8744 51.4869 60.808 51.8857 60.808C52.2845 60.808 52.6442 60.8744 52.9775 61.0073C53.3107 61.1402 53.5982 61.3238 53.8385 61.5582C54.0795 61.7934 54.2668 62.0681 54.4009 62.3831C54.5351 62.6982 54.6029 63.0393 54.6029 63.4036C54.6029 63.7679 54.5358 64.1098 54.4009 64.4241C54.266 64.7392 54.0788 65.0139 53.8385 65.249C53.5982 65.4842 53.3107 65.6678 52.9775 65.8C52.6435 65.9329 52.2801 65.9993 51.8857 65.9993C51.4913 65.9993 51.122 65.9329 50.7902 65.8C50.4585 65.6671 50.174 65.4834 49.9351 65.249C49.697 65.0139 49.5105 64.7392 49.3763 64.4241C49.2414 64.1084 49.1751 63.7679 49.1751 63.4036ZM50.5079 63.4036C50.5079 63.5992 50.5448 63.7799 50.6185 63.9449C50.6922 64.1099 50.7917 64.2539 50.9178 64.3756C51.0438 64.4973 51.1898 64.5921 51.3571 64.6593C51.5245 64.7265 51.7007 64.7608 51.8872 64.7608C52.0737 64.7608 52.2506 64.7272 52.4172 64.6593C52.5845 64.5921 52.7312 64.4973 52.8588 64.3756C52.9863 64.2539 53.0873 64.1106 53.161 63.9449C53.2347 63.7799 53.2716 63.5992 53.2716 63.4036C53.2716 63.2081 53.2347 63.0274 53.161 62.8624C53.0873 62.6974 52.9863 62.5541 52.8588 62.4317C52.7305 62.31 52.5831 62.2152 52.4172 62.148C52.2499 62.0808 52.0737 62.0465 51.8872 62.0465C51.7007 62.0465 51.5245 62.0801 51.3571 62.148C51.1898 62.2152 51.0438 62.31 50.9178 62.4317C50.7917 62.5534 50.6922 62.6974 50.6185 62.8624C50.5448 63.0274 50.5079 63.2081 50.5079 63.4036Z" fill="#181818"/>
<path d="M55.189 65.8634L56.0213 60.9446H57.2826L58.2645 63.5671L59.2398 60.9446H60.5011L61.3334 65.8634H60.0654L59.6423 63.0319L58.4849 65.8634H57.9777L56.8793 63.0319L56.4562 65.8634H55.1875H55.189Z" fill="#181818"/>
<path d="M64.9278 62.0278H63.4129V62.8497H64.8431V63.9329H63.4129V64.7809H64.9278V65.8641H62.1384V60.9453H64.9278V62.0285V62.0278Z" fill="#181818"/>
<path d="M69.9222 65.8634H68.3358L67.1202 63.9717V65.8634H65.8456V60.9446H67.8286C68.1021 60.9446 68.3402 60.9849 68.5437 61.0648C68.7472 61.1454 68.9152 61.2551 69.0479 61.394C69.1799 61.5328 69.2794 61.6941 69.3465 61.8762C69.4143 62.0591 69.4475 62.2547 69.4475 62.4638C69.4475 62.8378 69.3575 63.1408 69.1777 63.3738C68.9978 63.6067 68.7324 63.7642 68.3808 63.8471L69.9222 65.8627V65.8634ZM67.1195 63.1431H67.3605C67.6119 63.1431 67.805 63.0908 67.9399 62.9863C68.0741 62.8825 68.1412 62.7318 68.1412 62.5362C68.1412 62.3406 68.0734 62.1905 67.9399 62.086C67.805 61.9815 67.6126 61.9292 67.3605 61.9292H67.1195V63.1423V63.1431Z" fill="#181818"/>
<path d="M73.9398 62.843H75.7798V60.9446H77.0544V65.8634H75.7798V63.8344H73.9398V65.8634H72.6653V60.9446H73.9398V62.843Z" fill="#181818"/>
<path d="M79.3559 60.9446V63.6194C79.3559 63.7634 79.361 63.9098 79.3721 64.0598C79.3832 64.2099 79.4156 64.3457 79.4694 64.4674C79.5232 64.5891 79.6095 64.6884 79.7267 64.7645C79.8439 64.8407 80.0083 64.8788 80.2206 64.8788C80.4329 64.8788 80.5958 64.8407 80.7115 64.7645C80.8258 64.6884 80.9121 64.5891 80.9688 64.4674C81.0248 64.3457 81.0588 64.2099 81.0698 64.0598C81.0809 63.9098 81.086 63.7627 81.086 63.6194V60.9446H82.354V63.7948C82.354 64.56 82.1793 65.1191 81.8306 65.4715C81.4812 65.8238 80.9452 66 80.2213 66C79.4974 66 78.96 65.8238 78.6084 65.4715C78.2575 65.1191 78.082 64.5607 78.082 63.7948V60.9446H79.3566H79.3559Z" fill="#181818"/>
<path d="M83.3801 60.9446H85.2784C85.7295 60.9446 86.0723 61.0536 86.306 61.2708C86.5404 61.4888 86.6569 61.8016 86.6569 62.2099C86.6569 62.4578 86.6119 62.6631 86.5235 62.8266C86.435 62.9893 86.2986 63.1282 86.1165 63.2409C86.2986 63.276 86.4534 63.329 86.5809 63.4006C86.7085 63.4723 86.8124 63.5604 86.8928 63.6649C86.9731 63.7687 87.0306 63.8866 87.0653 64.0173C87.1007 64.1479 87.1176 64.2868 87.1176 64.4346C87.1176 64.6652 87.0778 64.869 86.9982 65.0482C86.9178 65.2266 86.8051 65.3767 86.6598 65.4984C86.5153 65.62 86.3384 65.7111 86.1298 65.7723C85.9212 65.8336 85.6882 65.8634 85.4273 65.8634H83.3794V60.9446H83.3809H83.3801ZM84.6547 62.8758H84.8891C85.2872 62.8758 85.4862 62.7168 85.4862 62.3996C85.4862 62.0823 85.2872 61.9233 84.8891 61.9233H84.6547V62.8758ZM84.6547 64.8713H84.9341C85.2548 64.8713 85.4848 64.8302 85.6234 64.7474C85.7619 64.6645 85.832 64.5324 85.832 64.3495C85.832 64.1666 85.7627 64.0344 85.6234 63.9516C85.4848 63.8687 85.2548 63.8276 84.9341 63.8276H84.6547V64.8713Z" fill="#181818"/>
</g>
<defs>
<linearGradient id="paint0_linear_19_4541" x1="49.3756" y1="22.4032" x2="34.6606" y2="49.9072" gradientUnits="userSpaceOnUse">
<stop stop-color="#4C2540"/>
<stop offset="0.18" stop-color="#7B1A37"/>
<stop offset="0.35" stop-color="#A21030"/>
<stop offset="0.52" stop-color="#C0092A"/>
<stop offset="0.69" stop-color="#D50426"/>
<stop offset="0.85" stop-color="#E20123"/>
<stop offset="1" stop-color="#E70023"/>
</linearGradient>
<linearGradient id="paint1_linear_19_4541" x1="73.7047" y1="52.9836" x2="73.6578" y2="48.7576" gradientUnits="userSpaceOnUse">
<stop stop-color="#4A2641"/>
<stop offset="0.14" stop-color="#57223E"/>
<stop offset="0.39" stop-color="#7C1937"/>
<stop offset="0.74" stop-color="#B70B2C"/>
<stop offset="1" stop-color="#E70023"/>
</linearGradient>
<linearGradient id="paint2_linear_19_4541" x1="4.91496" y1="53.9459" x2="1.28273" y2="60.7979" gradientUnits="userSpaceOnUse">
<stop stop-color="#4C2540"/>
<stop offset="0.18" stop-color="#7B1A37"/>
<stop offset="0.35" stop-color="#A21030"/>
<stop offset="0.52" stop-color="#C0092A"/>
<stop offset="0.69" stop-color="#D50426"/>
<stop offset="0.85" stop-color="#E20123"/>
<stop offset="1" stop-color="#E70023"/>
</linearGradient>
<clipPath id="clip0_19_4541">
<rect width="118" height="66" fill="white" transform="translate(0.5)"/>
</clipPath>
</defs>
</svg>
