<svg width="30" height="24" viewBox="0 0 30 24" fill="none" xmlns="http://www.w3.org/2000/svg">
<path d="M26.9611 2.90161H9.787C9.787 2.90161 9.787 4.56529 9.787 4.81964H26.9611C27.5494 4.81964 27.9932 5.42382 27.9932 6.14308V18.0636L24.5044 14.2276C24.2532 13.9451 23.9378 13.7179 23.5809 13.562C23.224 13.4062 22.8344 13.3256 22.44 13.3261C22.0465 13.3244 21.6574 13.4035 21.3005 13.5577C20.9437 13.7118 20.6279 13.9373 20.3756 14.218L16.7113 18.313L12.9954 14.2468C12.7423 13.9671 12.4262 13.7423 12.0696 13.5883C11.713 13.4342 11.3243 13.3545 10.931 13.3549C10.5361 13.3569 10.1464 13.4395 9.7897 13.5969C9.43295 13.7544 9.11782 13.9828 8.86663 14.2659L5.20233 18.4185V9.25828H3.13796L3.13794 20.8064C3.13794 20.9407 3.13794 21.0749 3.13794 21.2284C3.16655 21.4137 3.21143 21.5965 3.27213 21.775C3.27213 21.823 3.27213 21.8805 3.27213 21.9285L3.32374 22.0435C3.39475 22.2161 3.48106 22.3829 3.58178 22.5422L3.70565 22.7244C3.79885 22.853 3.90236 22.9748 4.01531 23.0889L4.17014 23.2327C4.33317 23.3759 4.51325 23.5014 4.70688 23.6067H4.73785C5.18693 23.8661 5.70574 24.0024 6.23453 23.9999H26.8785C27.3293 23.9957 27.7732 23.8969 28.1771 23.7109C28.5811 23.5249 28.9346 23.2565 29.2112 22.9258C29.4892 22.6061 29.7025 22.2422 29.8409 21.8517C29.924 21.5893 29.9759 21.3191 29.9957 21.0462C29.9957 20.9503 29.9957 20.8544 29.9957 20.7489V6.14308C30.0391 5.34306 29.7473 4.55852 29.1815 3.95414C28.6156 3.34975 27.8198 2.97251 26.9611 2.90161Z" fill="#666687"/>
<path d="M15.6894 11.1289C16.8295 11.1289 17.7538 10.2702 17.7538 9.21088C17.7538 8.15158 16.8295 7.29285 15.6894 7.29285C14.5493 7.29285 13.625 8.15158 13.625 9.21088C13.625 10.2702 14.5493 11.1289 15.6894 11.1289Z" fill="#666687"/>
<path d="M4.12916 7.75204H5.16099V4.83503H8.25754C8.25754 4.83503 8.25758 4.13037 8.25758 3.87602C8.25758 3.62167 8.25754 2.917 8.25754 2.917H5.16099V0C5.16099 0 4.40292 0 4.12916 0C3.85541 0 3.06628 0.00288468 3.09659 0V2.917H3.24835e-05C3.24835e-05 2.917 0 3.62167 0 3.87602C0 4.13037 8.49847e-05 4.83503 8.49847e-05 4.83503H3.09659V7.75204C3.09659 7.75204 3.85541 7.75204 4.12916 7.75204Z" fill="#666687"/>
</svg>
