<svg width="41" height="23" viewBox="0 0 41 23" fill="none" xmlns="http://www.w3.org/2000/svg">
<g clip-path="url(#clip0_7_706)">
<path d="M15.6459 5.05318L10.842 14.7319H15.8808C16.0498 14.7319 16.2043 14.6348 16.2796 14.4811L20.3358 6.20279L15.6457 5.05318H15.6459Z" fill="url(#paint0_linear_7_706)"/>
<path d="M15.7507 0.0491638C16.0519 0.645952 16.349 1.23598 16.6443 1.82522C16.9407 1.23311 17.237 0.641269 17.5336 0.0491638H15.7509H15.7507Z" fill="black"/>
<path d="M18.1277 0.0491638L25.4163 14.7319H20.1017L15.6585 5.67052C15.5583 5.4663 15.5589 5.22592 15.6603 5.02222L18.1277 0.0491638Z" fill="#E70023"/>
<path d="M23.4459 0H18.7639L21.0935 4.6947H23.5839C25.0657 4.6947 26.2667 5.91455 26.2667 7.41952C26.2667 8.9245 25.1758 10.0244 23.7919 10.1326L26.0311 14.645C28.8424 13.5799 30.8449 10.8293 30.8449 7.60267V7.51474C30.8449 3.36454 27.5323 0 23.4459 0Z" fill="black"/>
<path d="M5.3994 18.5701H7.18468C7.18468 18.7549 7.17699 18.9229 7.16163 19.0735C7.14626 19.2244 7.11578 19.3646 7.06993 19.4939C7.00564 19.6758 6.91855 19.8366 6.80841 19.9765C6.69827 20.1167 6.56892 20.2336 6.42062 20.3275C6.27206 20.4214 6.10915 20.4929 5.93165 20.5424C5.75415 20.5915 5.56742 20.6162 5.37148 20.6162C5.10228 20.6162 4.85664 20.5717 4.63482 20.4823C4.41301 20.393 4.22244 20.2674 4.06338 20.1058C3.90406 19.9443 3.78035 19.7502 3.69147 19.5239C3.60259 19.2975 3.55853 19.0475 3.55853 18.7733C3.55853 18.4991 3.60208 18.2538 3.68942 18.0275C3.77676 17.8011 3.90073 17.6078 4.06133 17.4478C4.22193 17.2879 4.41531 17.1632 4.642 17.0738C4.86842 16.9845 5.12097 16.9398 5.3994 16.9398C5.76029 16.9398 6.07714 17.0183 6.34941 17.1755C6.62169 17.3326 6.83761 17.5758 6.99642 17.9052L6.14271 18.2608C6.06305 18.0699 5.95983 17.9328 5.83304 17.8498C5.70599 17.7665 5.56128 17.7252 5.3994 17.7252C5.26467 17.7252 5.14249 17.7504 5.03209 17.8014C4.92196 17.8521 4.82795 17.9247 4.74983 18.0184C4.67171 18.1123 4.61049 18.2254 4.56618 18.3579C4.52187 18.4903 4.49958 18.638 4.49958 18.8012C4.49958 18.9489 4.51879 19.0858 4.55696 19.2122C4.59512 19.3386 4.6525 19.4476 4.72908 19.5402C4.80541 19.6326 4.90044 19.7044 5.01365 19.7551C5.12687 19.8061 5.25852 19.8314 5.40836 19.8314C5.49698 19.8314 5.58279 19.8215 5.66527 19.8014C5.748 19.7814 5.82202 19.7491 5.88785 19.7044C5.95342 19.6597 6.00798 19.6019 6.05076 19.5311C6.09353 19.4604 6.12273 19.374 6.1381 19.2723H5.39914V18.5701L5.39863 18.5707L5.3994 18.5701Z" fill="#181818"/>
<path d="M9.53937 17.8035H8.46999V18.3854H9.47994V19.1524H8.46999V19.7528H9.53937V20.5195H7.57043V17.0368H9.53937V17.8035Z" fill="#181818"/>
<path d="M10.0029 20.5192V17.0365H10.9025L12.5641 19.1659V17.0365H13.459V20.5192H12.5641L10.9025 18.3899V20.5192H10.0029Z" fill="#181818"/>
<path d="M16.5388 18.2005C16.3306 17.945 16.0734 17.8173 15.7676 17.8173C15.6328 17.8173 15.5084 17.842 15.3936 17.8911C15.2789 17.9403 15.1802 18.0074 15.0975 18.0922C15.0148 18.1771 14.9497 18.2777 14.9023 18.3948C14.8549 18.5119 14.8311 18.638 14.8311 18.7736C14.8311 18.9091 14.8547 19.04 14.9023 19.1568C14.9497 19.2739 15.0155 19.3753 15.0996 19.4617C15.1836 19.5478 15.2824 19.6157 15.3957 19.6649C15.5086 19.714 15.6313 19.7387 15.763 19.7387C16.0506 19.7387 16.309 19.6157 16.5385 19.3693V20.4409L16.4466 20.4734C16.309 20.5226 16.1805 20.5587 16.0611 20.5819C15.9417 20.605 15.8242 20.6165 15.7079 20.6165C15.4692 20.6165 15.2404 20.571 15.0217 20.4802C14.803 20.3894 14.6101 20.2616 14.4433 20.097C14.2766 19.9323 14.1426 19.7367 14.0417 19.5103C13.9408 19.284 13.8901 19.0369 13.8901 18.7692C13.8901 18.5015 13.9398 18.2556 14.0391 18.0324C14.1385 17.8092 14.2717 17.6167 14.4385 17.4551C14.6052 17.2936 14.7989 17.1671 15.0191 17.0764C15.2394 16.9858 15.4704 16.94 15.7122 16.94C15.8498 16.94 15.9853 16.9546 16.1182 16.9837C16.2512 17.0131 16.3913 17.0587 16.5385 17.1201V18.2007H16.5391L16.5388 18.2005Z" fill="#181818"/>
<path d="M18.1015 18.8475L16.8393 17.0368H17.9135L18.5559 17.9882L19.194 17.0368H20.2682L19.0014 18.8475V20.5195H18.1018V18.8475H18.1015Z" fill="#181818"/>
<path d="M21.5499 17.0368H22.8811C23.1167 17.0368 23.3378 17.0847 23.5445 17.1799C23.7509 17.2754 23.9315 17.4023 24.0859 17.561C24.2404 17.7197 24.3621 17.9044 24.4509 18.1154C24.5398 18.3264 24.5839 18.5472 24.5839 18.7783C24.5839 19.0093 24.5403 19.2257 24.4532 19.4364C24.3659 19.6474 24.2453 19.8329 24.0906 19.9929C23.9361 20.1532 23.7555 20.2809 23.5491 20.3761C23.3424 20.4716 23.1198 20.5192 22.8811 20.5192H21.5499V17.0365V17.0368ZM22.4497 19.7525H22.6564C22.8124 19.7525 22.9515 19.7281 23.0739 19.6786C23.1964 19.6295 23.2996 19.5616 23.3839 19.4755C23.4679 19.3894 23.5319 19.2869 23.5765 19.1682C23.6208 19.0499 23.6431 18.9195 23.6431 18.7777C23.6431 18.636 23.62 18.5098 23.5744 18.3899C23.5283 18.2699 23.4633 18.1666 23.3793 18.0803C23.2953 17.9942 23.1915 17.9263 23.0693 17.8771C22.9469 17.8279 22.8094 17.8032 22.6564 17.8032H22.4497V19.7523V19.7525Z" fill="#181818"/>
<path d="M25.8738 18.1635V20.5192H24.9742V18.1635H25.8738Z" fill="#181818"/>
<path d="M25.8738 17.3924V17.4276C25.8738 17.6776 25.6722 17.8802 25.424 17.8802C25.1758 17.8802 24.9742 17.6776 24.9742 17.4276V17.3924C24.9742 17.1424 25.1756 16.9398 25.424 16.9398C25.6725 16.9398 25.8738 17.1424 25.8738 17.3924Z" fill="url(#paint1_linear_7_706)"/>
<path d="M28.3153 17.9284C28.2172 17.8482 28.1193 17.7889 28.0217 17.7504C27.9236 17.7119 27.8289 17.6927 27.7369 17.6927C27.6206 17.6927 27.5256 17.7205 27.4523 17.7759C27.3788 17.8313 27.3419 17.9036 27.3419 17.9929C27.3419 18.0545 27.3604 18.1053 27.397 18.1453C27.4336 18.1854 27.482 18.22 27.5417 18.2491C27.6011 18.2783 27.6685 18.3037 27.7436 18.3253C27.8184 18.3469 27.8929 18.3701 27.9661 18.3948C28.2599 18.4934 28.4751 18.625 28.6111 18.7897C28.7474 18.9544 28.8155 19.1693 28.8155 19.4341C28.8155 19.6128 28.7855 19.7744 28.7258 19.919C28.6662 20.0639 28.5788 20.1878 28.4641 20.2908C28.3491 20.3941 28.2084 20.4739 28.0417 20.5309C27.875 20.5879 27.6862 20.6165 27.4749 20.6165C27.0374 20.6165 26.6319 20.4856 26.2587 20.2239L26.6442 19.4942C26.7787 19.6141 26.9116 19.7036 27.0433 19.7622C27.1749 19.8207 27.3051 19.8501 27.4336 19.8501C27.5804 19.8501 27.6898 19.8163 27.7617 19.7484C27.834 19.6807 27.8698 19.6037 27.8698 19.5174C27.8698 19.4651 27.8609 19.4195 27.8422 19.381C27.8237 19.3425 27.793 19.3072 27.7505 19.2749C27.7077 19.2426 27.6519 19.2127 27.5832 19.1849C27.5143 19.157 27.4311 19.1266 27.3332 19.0925C27.2169 19.0556 27.1027 19.0147 26.9913 18.9703C26.8796 18.9255 26.78 18.8665 26.6929 18.7923C26.6055 18.7182 26.5354 18.6253 26.4816 18.5129C26.4283 18.4005 26.4011 18.2582 26.4011 18.0855C26.4011 17.9127 26.4293 17.7566 26.4862 17.6167C26.5428 17.4765 26.6224 17.3565 26.7249 17.2564C26.8274 17.1565 26.9529 17.0784 27.1012 17.0233C27.2495 16.9676 27.4154 16.94 27.5991 16.94C27.7705 16.94 27.9495 16.964 28.136 17.0116C28.3227 17.0594 28.5017 17.1294 28.6731 17.2218L28.315 17.9286L28.3145 17.9291L28.3153 17.9284Z" fill="#181818"/>
<path d="M32.0746 20.5192H30.9548L30.0965 19.1797V20.5192H29.1967V17.0365H30.5967C30.7893 17.0365 30.9576 17.0652 31.1016 17.1219C31.2452 17.1788 31.3638 17.2566 31.4576 17.355C31.5508 17.4536 31.621 17.5675 31.6689 17.6968C31.7163 17.8261 31.7396 17.9648 31.7396 18.1125C31.7396 18.3774 31.6763 18.5923 31.5493 18.7569C31.4227 18.9216 31.235 19.0335 30.9873 19.0917L32.0749 20.5189L32.0746 20.5192ZM30.0967 18.5933H30.2663C30.4438 18.5933 30.5801 18.5564 30.6748 18.4825C30.7696 18.4086 30.817 18.3024 30.817 18.1638C30.817 18.0251 30.7696 17.919 30.6748 17.8451C30.5801 17.7712 30.444 17.7343 30.2663 17.7343H30.0967V18.5933Z" fill="#181818"/>
<path d="M33.1351 17.0368V18.9304C33.1351 19.0322 33.1389 19.136 33.1463 19.2421C33.154 19.3485 33.1765 19.4445 33.2152 19.5309C33.2531 19.617 33.3136 19.6872 33.3963 19.7411C33.479 19.7949 33.5951 19.822 33.7449 19.822C33.8948 19.822 34.0105 19.7949 34.0915 19.7411C34.1727 19.6872 34.2331 19.6172 34.2728 19.5309C34.3128 19.4448 34.3363 19.3483 34.344 19.2421C34.3517 19.136 34.3553 19.0319 34.3553 18.9304V17.0368H35.2505V19.0551C35.2505 19.5972 35.1273 19.9926 34.8809 20.2421C34.6347 20.4916 34.2559 20.6162 33.7449 20.6162C33.2339 20.6162 32.8541 20.4916 32.6066 20.2421C32.3587 19.9926 32.235 19.597 32.235 19.0551V17.0368H33.1351Z" fill="#181818"/>
<path d="M36.692 20.5192H35.7922V17.0365H37.224C37.6126 17.0365 37.9105 17.1383 38.1169 17.3414C38.3236 17.5446 38.4269 17.831 38.4269 18.2005C38.4269 18.5699 38.3236 18.8563 38.1169 19.0595C37.9105 19.2627 37.6126 19.3644 37.224 19.3644H36.692V20.5192ZM36.692 18.6349H36.9905C37.3209 18.6349 37.4861 18.4903 37.4861 18.2007C37.4861 17.9112 37.3209 17.7665 36.9905 17.7665H36.692V18.6349Z" fill="#181818"/>
<path d="M40.2611 17.8035V20.5192H39.3618V17.8035H38.6228V17.0365H41.0003V17.8035H40.2613H40.2611Z" fill="#181818"/>
<path d="M1.20282 18.118L0 20.5192H1.26174C1.304 20.5192 1.34268 20.495 1.36163 20.457L2.37747 18.4031L1.20282 18.118Z" fill="url(#paint2_linear_7_706)"/>
<path d="M1.82447 16.8766L3.64945 20.5192H2.31856L1.2059 18.2712C1.18079 18.2205 1.18079 18.1609 1.20641 18.1105L1.82421 16.8766H1.82447Z" fill="#E70023"/>
<path d="M12.207 21.8111C12.1046 21.6855 11.9781 21.6225 11.8277 21.6225C11.7614 21.6225 11.7002 21.6347 11.6435 21.6589C11.5872 21.6831 11.5385 21.7161 11.4978 21.7578C11.4571 21.7997 11.4251 21.8491 11.4018 21.9066C11.3784 21.9641 11.3667 22.0263 11.3667 22.0928C11.3667 22.1594 11.3784 22.224 11.4018 22.2815C11.4251 22.339 11.4573 22.3892 11.4988 22.4316C11.5401 22.474 11.5887 22.5075 11.6446 22.5315C11.7002 22.5559 11.7603 22.5679 11.8254 22.5679C11.9668 22.5679 12.0943 22.5073 12.207 22.386V22.9136L12.162 22.9295C12.0943 22.9537 12.0311 22.9714 11.9722 22.9828C11.9135 22.9943 11.8556 23 11.7983 23C11.6807 23 11.568 22.9776 11.4604 22.9329C11.3528 22.8884 11.2578 22.8252 11.1758 22.7443C11.0939 22.6631 11.028 22.5671 10.9781 22.4555C10.9284 22.3439 10.9036 22.2224 10.9036 22.0908C10.9036 21.9591 10.9279 21.8382 10.9768 21.7281C11.0257 21.6181 11.0913 21.5234 11.1733 21.444C11.2552 21.3644 11.3505 21.3022 11.4591 21.2578C11.5675 21.2133 11.6812 21.1906 11.8003 21.1906C11.8679 21.1906 11.9348 21.1979 12.0001 21.2122C12.0657 21.2265 12.1346 21.2489 12.2068 21.2794V21.8116L12.207 21.8111Z" fill="#181818"/>
<path d="M12.9298 21.2383V22.1704C12.9298 22.2206 12.9316 22.2716 12.9355 22.3239C12.9393 22.3762 12.9506 22.4235 12.9693 22.4659C12.988 22.5083 13.0179 22.5429 13.0587 22.5694C13.0994 22.596 13.1565 22.6092 13.2303 22.6092C13.3041 22.6092 13.3609 22.596 13.4009 22.5694C13.4408 22.5429 13.4705 22.5083 13.4903 22.4659C13.5097 22.4235 13.5215 22.3762 13.5254 22.3239C13.5292 22.2716 13.531 22.2203 13.531 22.1704V21.2383H13.9716V22.2315C13.9716 22.4982 13.9108 22.693 13.7897 22.8158C13.6683 22.9386 13.4821 23 13.2305 23C12.979 23 12.7923 22.9386 12.6704 22.8158C12.5484 22.693 12.4875 22.4984 12.4875 22.2315V21.2383H12.9304H12.9298Z" fill="#181818"/>
<path d="M15.2633 21.6771C15.2151 21.6378 15.167 21.6087 15.1188 21.5895C15.0707 21.5707 15.0238 21.5611 14.9787 21.5611C14.9216 21.5611 14.8747 21.5746 14.8386 21.6019C14.8025 21.6293 14.7843 21.6649 14.7843 21.7089C14.7843 21.7393 14.7933 21.7643 14.8112 21.7838C14.8294 21.8036 14.853 21.8205 14.8824 21.8348C14.9119 21.8491 14.9449 21.8618 14.9818 21.8722C15.0187 21.8829 15.055 21.8941 15.0914 21.9063C15.2359 21.9547 15.3417 22.0197 15.4088 22.1007C15.4756 22.1818 15.5094 22.2874 15.5094 22.4178C15.5094 22.5057 15.4948 22.5853 15.4654 22.6566C15.4359 22.7279 15.3929 22.7888 15.3365 22.8395C15.2802 22.8902 15.2108 22.9298 15.1288 22.9579C15.0468 22.986 14.9536 22.9997 14.8499 22.9997C14.6345 22.9997 14.4349 22.9352 14.2513 22.8064L14.4411 22.4472C14.5074 22.5062 14.573 22.5502 14.6375 22.5791C14.7023 22.608 14.7664 22.6223 14.8296 22.6223C14.9019 22.6223 14.9559 22.6056 14.991 22.5721C15.0266 22.5388 15.044 22.5008 15.044 22.4584C15.044 22.4326 15.0397 22.4102 15.0305 22.3912C15.0215 22.3725 15.0064 22.3548 14.9854 22.339C14.9641 22.3231 14.9367 22.3083 14.9029 22.2945C14.8691 22.2809 14.8278 22.2656 14.7797 22.2489C14.7226 22.2307 14.6665 22.2107 14.6114 22.1888C14.5563 22.167 14.5074 22.1379 14.4644 22.1012C14.4214 22.065 14.3868 22.019 14.3604 21.9636C14.334 21.9081 14.321 21.8382 14.321 21.7534C14.321 21.6685 14.3348 21.5915 14.3627 21.5226C14.3906 21.4537 14.4296 21.3946 14.4803 21.3454C14.5307 21.2963 14.5925 21.2578 14.6655 21.2307C14.7385 21.2037 14.8202 21.1899 14.9106 21.1899C14.9948 21.1899 15.0832 21.2016 15.1749 21.2252C15.2669 21.2487 15.355 21.2833 15.439 21.3288L15.2628 21.6766V21.6771H15.2633Z" fill="#181818"/>
<path d="M16.4448 21.6157V22.9524H16.002V21.6157H15.6382V21.2383H16.8083V21.6157H16.4446H16.4448Z" fill="#181818"/>
<path d="M16.9125 22.0952C16.9125 21.9677 16.9358 21.8493 16.9825 21.7396C17.0291 21.6295 17.0939 21.534 17.1766 21.4521C17.2593 21.3701 17.3585 21.3064 17.4737 21.2601C17.589 21.2138 17.7158 21.1906 17.8544 21.1906C17.9929 21.1906 18.1179 21.2138 18.2337 21.2601C18.3495 21.3064 18.4494 21.3704 18.5329 21.4521C18.6166 21.534 18.6817 21.6298 18.7283 21.7396C18.7749 21.8493 18.7985 21.9682 18.7985 22.0952C18.7985 22.2221 18.7752 22.3413 18.7283 22.4508C18.6814 22.5606 18.6164 22.6563 18.5329 22.7383C18.4494 22.8202 18.3495 22.8842 18.2337 22.9303C18.1177 22.9766 17.9914 22.9997 17.8544 22.9997C17.7173 22.9997 17.589 22.9766 17.4737 22.9303C17.3585 22.884 17.2596 22.82 17.1766 22.7383C17.0939 22.6563 17.0291 22.5606 16.9825 22.4508C16.9356 22.3408 16.9125 22.2221 16.9125 22.0952ZM17.3756 22.0952C17.3756 22.1634 17.3884 22.2263 17.4141 22.2838C17.4397 22.3413 17.4742 22.3915 17.518 22.4339C17.5618 22.4763 17.6126 22.5094 17.6707 22.5328C17.7288 22.5562 17.7901 22.5681 17.8549 22.5681C17.9197 22.5681 17.9811 22.5564 18.039 22.5328C18.0972 22.5094 18.1481 22.4763 18.1925 22.4339C18.2368 22.3915 18.2719 22.3416 18.2975 22.2838C18.3231 22.2263 18.3359 22.1634 18.3359 22.0952C18.3359 22.027 18.3231 21.9641 18.2975 21.9066C18.2719 21.8491 18.2368 21.7991 18.1925 21.7565C18.1479 21.7141 18.0967 21.681 18.039 21.6576C17.9809 21.6342 17.9197 21.6222 17.8549 21.6222C17.7901 21.6222 17.7288 21.6339 17.6707 21.6576C17.6126 21.681 17.5618 21.7141 17.518 21.7565C17.4742 21.7989 17.4397 21.8491 17.4141 21.9066C17.3884 21.9641 17.3756 22.027 17.3756 22.0952Z" fill="#181818"/>
<path d="M19.0021 22.9524L19.2913 21.2383H19.7295L20.0707 22.1522L20.4096 21.2383H20.8478L21.137 22.9524H20.6965L20.5494 21.9656L20.1473 22.9524H19.9711L19.5894 21.9656L19.4424 22.9524H19.0016H19.0021Z" fill="#181818"/>
<path d="M22.386 21.6157H21.8596V21.9022H22.3565V22.2796H21.8596V22.5752H22.386V22.9526H21.4167V21.2385H22.386V21.616V21.6157Z" fill="#181818"/>
<path d="M24.1213 22.9524H23.5701L23.1477 22.2932V22.9524H22.7048V21.2383H23.3938C23.4889 21.2383 23.5716 21.2523 23.6423 21.2801C23.713 21.3082 23.7714 21.3465 23.8175 21.3949C23.8633 21.4433 23.8979 21.4994 23.9212 21.5629C23.9448 21.6267 23.9563 21.6948 23.9563 21.7677C23.9563 21.898 23.9251 22.0036 23.8626 22.0848C23.8001 22.166 23.7079 22.2208 23.5857 22.2497L24.1213 22.9521V22.9524ZM23.1474 22.0044H23.2312C23.3185 22.0044 23.3856 21.9862 23.4325 21.9498C23.4791 21.9136 23.5024 21.8611 23.5024 21.7929C23.5024 21.7247 23.4789 21.6724 23.4325 21.636C23.3856 21.5996 23.3188 21.5814 23.2312 21.5814H23.1474V22.0041V22.0044Z" fill="#181818"/>
<path d="M25.5172 21.8998H26.1565V21.2383H26.5994V22.9524H26.1565V22.2453H25.5172V22.9524H25.0743V21.2383H25.5172V21.8998Z" fill="#181818"/>
<path d="M27.3991 21.2383V22.1704C27.3991 22.2206 27.4009 22.2716 27.4047 22.3239C27.4086 22.3762 27.4198 22.4235 27.4385 22.4659C27.4572 22.5083 27.4872 22.5429 27.5279 22.5694C27.5687 22.596 27.6258 22.6092 27.6995 22.6092C27.7733 22.6092 27.8299 22.596 27.8701 22.5694C27.9098 22.5429 27.9398 22.5083 27.9595 22.4659C27.979 22.4235 27.9908 22.3762 27.9946 22.3239C27.9984 22.2716 28.0002 22.2203 28.0002 22.1704V21.2383H28.4408V22.2315C28.4408 22.4982 28.3801 22.693 28.2589 22.8158C28.1375 22.9386 27.9513 23 27.6998 23C27.4483 23 27.2615 22.9386 27.1394 22.8158C27.0174 22.693 26.9565 22.4984 26.9565 22.2315V21.2383H27.3993H27.3991Z" fill="#181818"/>
<path d="M28.7973 21.2383H29.4569C29.6136 21.2383 29.7327 21.2762 29.8139 21.3519C29.8954 21.4279 29.9358 21.5369 29.9358 21.6792C29.9358 21.7656 29.9202 21.8371 29.8895 21.8941C29.8588 21.9508 29.8114 21.9992 29.7481 22.0385C29.8114 22.0507 29.8652 22.0692 29.9095 22.0942C29.9538 22.1191 29.9899 22.1498 30.0178 22.1862C30.0457 22.2224 30.0657 22.2635 30.0777 22.309C30.09 22.3546 30.0959 22.4029 30.0959 22.4545C30.0959 22.5348 30.0821 22.6059 30.0544 22.6683C30.0265 22.7305 29.9873 22.7828 29.9369 22.8252C29.8867 22.8676 29.8252 22.8993 29.7527 22.9207C29.6802 22.942 29.5993 22.9524 29.5086 22.9524H28.7971V21.2383H28.7976H28.7973ZM29.2402 21.9113H29.3216C29.4599 21.9113 29.5291 21.8559 29.5291 21.7453C29.5291 21.6347 29.4599 21.5793 29.3216 21.5793H29.2402V21.9113ZM29.2402 22.6066H29.3373C29.4487 22.6066 29.5286 22.5923 29.5767 22.5635C29.6249 22.5346 29.6492 22.4885 29.6492 22.4248C29.6492 22.3611 29.6252 22.315 29.5767 22.2861C29.5286 22.2573 29.4487 22.243 29.3373 22.243H29.2402V22.6066Z" fill="#181818"/>
</g>
<defs>
<linearGradient id="paint0_linear_7_706" x1="16.9822" y1="7.80714" x2="11.8458" y2="17.3793" gradientUnits="userSpaceOnUse">
<stop stop-color="#4C2540"/>
<stop offset="0.18" stop-color="#7B1A37"/>
<stop offset="0.35" stop-color="#A21030"/>
<stop offset="0.52" stop-color="#C0092A"/>
<stop offset="0.69" stop-color="#D50426"/>
<stop offset="0.85" stop-color="#E20123"/>
<stop offset="1" stop-color="#E70023"/>
</linearGradient>
<linearGradient id="paint1_linear_7_706" x1="25.4355" y1="18.464" x2="25.4192" y2="16.9913" gradientUnits="userSpaceOnUse">
<stop stop-color="#4A2641"/>
<stop offset="0.14" stop-color="#57223E"/>
<stop offset="0.39" stop-color="#7C1937"/>
<stop offset="0.74" stop-color="#B70B2C"/>
<stop offset="1" stop-color="#E70023"/>
</linearGradient>
<linearGradient id="paint2_linear_7_706" x1="1.53401" y1="18.7993" x2="0.266138" y2="21.1841" gradientUnits="userSpaceOnUse">
<stop stop-color="#4C2540"/>
<stop offset="0.18" stop-color="#7B1A37"/>
<stop offset="0.35" stop-color="#A21030"/>
<stop offset="0.52" stop-color="#C0092A"/>
<stop offset="0.69" stop-color="#D50426"/>
<stop offset="0.85" stop-color="#E20123"/>
<stop offset="1" stop-color="#E70023"/>
</linearGradient>
<clipPath id="clip0_7_706">
<rect width="41" height="23" fill="white"/>
</clipPath>
</defs>
</svg>
