<svg width="148" height="148" viewBox="0 0 148 148" fill="none" xmlns="http://www.w3.org/2000/svg">
<g opacity="0.8">
<path opacity="0.15" fill-rule="evenodd" clip-rule="evenodd" d="M110.814 37.0071H73.973V74.0863H110.814V37.0071Z" fill="url(#paint0_linear_6_383)"/>
<path opacity="0.07" fill-rule="evenodd" clip-rule="evenodd" d="M36.8426 0H0V37.0792H36.8426V0Z" fill="url(#paint1_linear_6_383)"/>
<path opacity="0.07" fill-rule="evenodd" clip-rule="evenodd" d="M73.9232 73.9472H37.0806V111.026H73.9232V73.9472Z" fill="url(#paint2_linear_6_383)"/>
<path opacity="0.07" fill-rule="evenodd" clip-rule="evenodd" d="M147.986 110.921H110.697V148H147.986V110.921Z" fill="url(#paint3_linear_6_383)"/>
<path opacity="0.15" fill-rule="evenodd" clip-rule="evenodd" d="M73.8284 37.0069H36.8411L73.8284 0V37.0069Z" fill="url(#paint4_linear_6_383)"/>
<path opacity="0.15" fill-rule="evenodd" clip-rule="evenodd" d="M110.595 111.02V74.0127H147.582L110.595 111.02Z" fill="url(#paint5_linear_6_383)"/>
<path opacity="0.4" fill-rule="evenodd" clip-rule="evenodd" d="M73.8268 0V37.0069H110.814V74.0138H147.801V3.00001C147.801 1.34315 146.458 0 144.801 0H73.8268Z" fill="url(#paint6_linear_6_383)"/>
</g>
<defs>
<linearGradient id="paint0_linear_6_383" x1="91.307" y1="83.3055" x2="118.239" y2="56.5855" gradientUnits="userSpaceOnUse">
<stop stop-color="#7A92FF"/>
<stop offset="1" stop-color="#3253EA"/>
</linearGradient>
<linearGradient id="paint1_linear_6_383" x1="40.9913" y1="13.8842" x2="0.0143733" y2="11.6384" gradientUnits="userSpaceOnUse">
<stop stop-color="#A8B8FF"/>
<stop offset="1" stop-color="#3253EA"/>
</linearGradient>
<linearGradient id="paint2_linear_6_383" x1="54.4154" y1="120.246" x2="81.3469" y2="93.5244" gradientUnits="userSpaceOnUse">
<stop stop-color="#A8B8FF"/>
<stop offset="1" stop-color="#3253EA"/>
</linearGradient>
<linearGradient id="paint3_linear_6_383" x1="128.242" y1="157.219" x2="155.174" y2="130.174" gradientUnits="userSpaceOnUse">
<stop stop-color="#A8B8FF"/>
<stop offset="1" stop-color="#3253EA"/>
</linearGradient>
<linearGradient id="paint4_linear_6_383" x1="54.2439" y1="46.2082" x2="81.1238" y2="19.3812" gradientUnits="userSpaceOnUse">
<stop stop-color="#7A92FF"/>
<stop offset="1" stop-color="#3253EA"/>
</linearGradient>
<linearGradient id="paint5_linear_6_383" x1="126.279" y1="74.0489" x2="124.937" y2="111.073" gradientUnits="userSpaceOnUse">
<stop stop-color="#7A92FF"/>
<stop offset="1" stop-color="#3253EA"/>
</linearGradient>
<linearGradient id="paint6_linear_6_383" x1="73.3748" y1="36.8652" x2="132.872" y2="66.7397" gradientUnits="userSpaceOnUse">
<stop stop-color="#7A92FF"/>
<stop offset="1" stop-color="#3858EA"/>
</linearGradient>
</defs>
</svg>
